<?xml version="1.0" encoding="utf-8"?>
<!-- Generator: Adobe Illustrator 19.1.0, SVG Export Plug-In . SVG Version: 6.00 Build 0)  -->
<svg version="1.1" id="Layer_1" xmlns="http://www.w3.org/2000/svg" xmlns:xlink="http://www.w3.org/1999/xlink" x="0px" y="0px"
	 viewBox="0 0 612 792" style="enable-background:new 0 0 612 792;" xml:space="preserve">
<style type="text/css">
	.st0{fill:#6D6D6D;stroke:#6D6D6D;stroke-width:1.1925;stroke-miterlimit:10;}
</style>
<g>
	<path class="st0" d="M80.6,183.2c-2.9,1.9-5.7,4.1-9.3,4.8c-0.5,0-0.5,0-0.5,0c1.2,6.2,3.3,12.4,9.8,14.8c3.3,1.2,1.7,4.5-1.2,4.1
		c-10.3-3.6-13.8-13.1-13.8-23.6c0-11.4,3.6-22.9,8.6-33.2c2.4-5,6.4-11.9,12.6-14.3c6.9-2.9,12.6,3.6,13.8,10.3
		C103,160,91.5,173.4,80.6,183.2z M95.8,146.7c-0.5-2.4-2.4-8.1-5.7-8.1h-0.5c-0.7,0-2.9,1.7-4.1,2.9c-5,4.5-8.6,12.6-10.7,19.6
		c-2.9,7.4-4.8,16-4.1,24.1C81.1,180.3,98.7,160.3,95.8,146.7z"/>
	<path class="st0" d="M152.6,159.3c0,3.8-1,8.6-2.9,11.9c-3.3,9.8-9.5,18.8-16.5,26.2c-5.2,5.7-12.6,13.4-20.8,13.8
		c-3.3,0.5-5-4.1-1.7-4.1c5.2-0.5,9.3-4.1,12.6-7.4c5.2-4.5,9.8-9.8,13.8-15.5c3.3-5.7,6.7-11.4,8.6-17.6c1-4.1,2.1-8.6,0-12.2
		c-5.2-0.5-10.5,4.8-13.8,8.6c-5.7,6.9-10.3,14.3-14.3,22.4c-4.1,8.1-7.4,16-10.3,24.6c0,0,0,0,0,0.7c-1.2,7.4-2.4,15.3-3.6,23.4
		c0,2.4-3.8,2.9-5,0.5c-2.4-3.8-1.2-7.9-0.7-12.4c0.7-2.4,1.2-4.8,1.9-6.9c0.5-1.7,1-4.1,1.7-5.7c2.9-18.8,5-37.9,8.6-57.2
		c4.1-24.6,7.9-49.4,11.4-74.4c1.2-9.3,2.9-18.8,4.1-28.6c0-2.9,0.5-5.7,0.5-8.6c0-1.2,0-1.7,0-2.9c0-0.7-0.5-1.2,0-1.7
		c1.2-1.2,2.9-1.2,4.1,0c0.5,1,0.5,2.9,0.5,3.8c0,3.6-0.5,6.4-0.5,9.3c-1.2,9.1-2.4,18.8-4.1,28.6c-3.3,24.6-6.9,49.1-11,74.4
		c-2.1,11.9-3.8,24.6-5,36.5c4.5-10.3,10.3-20.5,17.6-29.1c5.2-5.2,12.2-11,20-9.1C151.6,151.2,152.6,156.5,152.6,159.3z"/>
	<path class="st0" d="M194.6,166c-4.5,6-11.2,9.8-17.9,11c-1.9,4.5-6.2,11.7-12.4,10.3c-4.1-1.2-5.7-4.5-6.4-7.9
		c-0.5-4.1-0.5-8.6,0.7-12.6c0.5-1.2,1.7-2.9,3.3-3.6c1.2-4.5,4.1-8.6,8.6-9.1c9.8-1.9,9.3,12.6,7.4,18.8c5.2-1.2,9.8-4.1,13.1-8.6
		C192.2,163.1,195.8,164.3,194.6,166z M171,177.4c0.5,0-4.5,0.2-6.4-1.2c-1.2-0.5-2.1-1.7-2.6-2.6c0,2.9,0,6.7,1.7,9.1
		C166.4,186,170.5,179.8,171,177.4z M167.1,161.5c-1.2,2.4-3.6,8.6-0.7,11.4c1.2,0.7,3.6,0.7,5.2,0.7c0.5,0,1.2,0,1.2,0
		c1-2.9,2.1-6.4,1.7-9.8c-0.2-2.1-0.7-6.4-2.4-6.4C170,157.4,168.1,159.8,167.1,161.5z"/>
	<path class="st0" d="M226.5,233.7c-1.7,1-3.8,1.7-6.2,0.5c-5.2-1.7-6.2-8.6-6.9-13.1c-1.2-8.6-1.2-16.7-1.2-25.3s0.7-17.6,1.2-26.2
		c0-4.1,0.7-9.3,0-12.6c-3.1,3.1-4.8,8.6-6.9,12.6c-5.7,11.9-10.7,24.6-16.5,36.5c-1.2,1.9-4.5,1.9-4.5-0.5
		c-0.7-11.4,2.9-37.7,7.9-49.8c1.2-2.1,4.5-4.1,5.7-0.5c0.7,1.2-0.5,2.1-1.7,2.1c-4.5,11.2-5.5,24.3-6.9,36.7
		c4.5-11.4,9.3-22.4,15-33.2c1.7-2.9,3.3-6.9,6.7-8.6c2.4-1.2,5.7,0,5.7,2.9c1.2,5.7,0.7,11.9,0,17.6c-0.5,9.3-1,17.9-1,27
		c0,8.1,0,16,1.7,24.1c0.5,2.4,2.1,8.6,5.7,6.2C226.5,229,228.9,232.5,226.5,233.7z"/>
	<path class="st0" d="M230.6,166c0,3.6-0.7,6.9-1.2,10.5c-1.2,9.1-2.9,18.1-3.3,27.4c0,2.9-5.2,2.9-5.2,0c0-1.2,0-2.4,0-2.9
		c0.5-6.9,1.7-14.3,2.9-21.2c0.5-3.3,0.5-6.9,1.2-11c0-1,0.5-2.1,0.5-3.3V165c0-0.7,0-0.7,0-0.7s0,0,0-0.5
		C226.5,161,230.6,163.1,230.6,166z M227,147.9c-0.7-0.5-1.7-0.7-1.7-1.9c0-2.1,3.3-4.1,4.5-2.1c0.5,0.5,1.2,0.7,1.2,1.7
		C231.1,146.7,228.7,148.8,227,147.9z"/>
	<path class="st0" d="M336.5,167.9c-13.1,11.9-27,24.6-39.4,37.7c0,17.2-0.7,34.8-4.8,52c-1.7,10.5-4.5,20-9.5,29.3
		c-4.8,8.6-16.2,23.4-27.7,16.5c-11.4-6.7-10.3-21.7-7.4-32.4c3.6-12.6,10.3-24.8,17.9-35.5c7.4-11,16.5-21.7,25.8-31.5
		c0-9.5-0.7-41.7-4.8-47.5c0-0.2-2.6-2.4,0.7-3.6c5-1.7,6,6.9,6.4,10.3c1.2,8.8,2.1,17.6,2.6,35.5c12.2-11.9,24.6-22.9,36.7-33.6
		C335.3,163.1,339.3,165.5,336.5,167.9z M291.4,211.3c-0.7,0.5-1.9,1.7-2.4,2.4c-9.8,11.4-19.6,22.9-26.2,36
		c-5.7,10.7-12.2,23.4-11.4,36c0.5,5.2,2.1,13.8,8.6,14.8c5.7,1.2,11.4-5.7,14.3-9.5c6.2-8.6,9.5-19.1,11.9-29.3
		C290.2,245.2,291.4,228,291.4,211.3z M284.5,128.3c1.2-0.5,2.6,0.2,2.9,1c0.5,1.7-2.9,5.2-4.5,3.6
		C280.4,131.9,282.3,129,284.5,128.3z"/>
	<path class="st0" d="M374.9,165.5c-3.3,5.7-5.7,12.6-9.1,18.4c-2.9,4.5-6.4,11.4-12.6,11.4c-2.9,0.5-4.5-3.6-5.7-5.7
		c-1.2-3.6-1.2-6.9-1.2-11c0-2.1,0-4.5,0-6.9c-6.2,12.2-15.3,25.5-21.9,17.4c-2.1-2.4-1.4-5.2-0.2-8.1c1.7-4.1,3.3-8.1,5.7-11.4
		c2.1-3.6,4.5-7.4,7.9-9.3c1.7-1,5.2-1.7,6.4,0.7c1,2.1-1.9,2.9-2.9,1.7c-0.7,0-0.7,0-0.7,0c-3.3,3.3-6,7.2-8.6,11.9
		c-1.7,2.9-3.3,6.4-4.1,9.8c-0.5,1.2-0.5,3.6,0.7,3.6c1.7,0,4.1-2.9,5-4.1c6-7.2,9.5-16.9,14.3-26.5c1.2-1.7,5.2-1.7,4.8,0.7
		c-0.7,5.7-1.9,11.4-1.9,17.2c0,5,0,11.9,2.9,16c4.3-1,6.9-7.4,9.3-11.4c2.1-5.2,4.5-11,7.4-15.5
		C371.5,162.2,376.1,163.1,374.9,165.5z"/>
	<path class="st0" d="M400.2,166c-3.6,5.2-8.6,9.3-14.3,12.6c-4.1,2.4-11,5.7-15.5,2.4c-9.8-7.6,9.8-35.8,19.3-27
		c1.9,1.7-1.7,3.3-3.3,2.4c-2.4-1.9-5.7,2.1-6.9,3.8c-2.1,2.4-3.3,4.8-4.5,7.6c-1.2,2.1-1.7,5-1.7,7.9c0,0.7,0.5,1.7,0.5,1.7
		l0.7,0.7c3.3,0,7.9-2.9,10.7-4.5c4.1-2.9,7.4-5.7,9.8-9.3C396.6,162.7,401.1,163.1,400.2,166z"/>
	<path class="st0" d="M467.7,167.2c-5,6.4-10.3,14.3-17.2,18.8c-7.4,4.8-15.5,4.8-22.2-1c-3.6-2.9-6.4-6.9-8.6-10.5
		c-1.9-3.3-4.1-7.4-6.9-9.5c-3.6,3.3-6.9,6.2-11.4,8.6c0,2.9,0,5-0.7,7.9c-1.7,18.8-4.5,37.9-6.2,57.2c-0.5,12.2-1.7,24.1-2.4,36
		c-0.5,4.8-1,9.8-1,15c0,1.2,0,2.1,0,3.3c1,0.7,1.7,1.2,1,2.4c-1,2.1-4.5,4.1-5.7,0.5c-1-2.1-0.5-5-0.5-7.4
		c0.5-10.3,1.2-20.5,2.4-31c1-11.9,1.7-23.9,2.9-36c0.5-6.2,1.7-13.1,2.1-20c1.2-8.6,2.4-17.6,2.9-26.2c-3.6-4.8-0.2-12.4,2.4-18.4
		c0.5-7.4,1.2-14.3,2.1-21.7c1.9-15,4.1-29.8,6.9-44.6c1.2-8.6,3.6-17.2,4.5-25.8c0.2-2.4,1-5.2,1.4-8.1c0.7-4.5,4.1-6.2,6.7-2.4
		c1,1.4,0,2.9-1.7,2.9c-0.2,1.4-0.5,2.9-0.7,3.6c-1.4,4.8-1.7,10.3-2.9,15.5c-2.9,16-5.7,32.4-7.9,48.7c-1.2,6.7-1.7,14.3-2.4,21
		c6.4-9.5,20.5-22.2,24.6-11.4c1,2.9-0.5,6.4-1.7,9.3c-2.1,4.5-5,8.6-7.9,12.6c-1.2,1.7-2.6,3.6-4.5,5.5c3.6,2.9,6.2,6.9,8.3,11
		c4.8,7.4,13.4,17.2,22.4,11c7.4-4.5,12.6-12.2,17.6-18.4C465.5,163.9,469.3,165.5,467.7,167.2z M408.7,162.7
		c-1.9-0.5-4.1,0-6.2,1.2c-0.2,1.2-0.7,2.6-0.7,4.5C404.2,166.7,406.4,165,408.7,162.7z M409.9,146.7c-2.4,2.9-4.5,6.9-6.4,10.3
		c0,0.5-0.5,1.7-0.5,2.4c1.9-0.7,4.5-1.2,8.3,0.2c2.9-2.9,15.7-19.1,12.9-24.3c0,0,0-0.5-0.7-0.7c0,0,0,0-0.5,0
		c-1.7,0-2.9,1.2-4.1,1.9C415.7,139.3,412.8,142.6,409.9,146.7z"/>
	<path class="st0" d="M504.4,166c-8.6,11-21.5,17.2-31.7,27c0.7,3.8,1.7,8.1,0.7,12.6c-1.4,6.9-9.1,4.8-12.4,0
		c-2.4-5.2,2.1-10.3,6.7-14.3c-1.9-9.8-6.4-21.5-6.2-30.3c0.2-4.5,2.9-9.8,8.1-11.4c5-2.4,10.3-0.7,14.8,2.1
		c2.4,1.9-1.2,4.1-2.9,2.9c-3.3-1.7-8.1-3.3-11.4-0.5c-3.3,2.9-4.1,7.4-3.3,11.4c0.5,5.7,2.4,11,3.8,16.7c0.5,1.9,1,3.6,1.2,5.7
		c0.7-0.5,1-0.7,1.7-1.2c10.3-7.2,19.3-14.1,27-22.9C502,162.2,506,163.9,504.4,166z M468.4,197.5V197c-1.7,1.7-3.6,4.5-2.9,6.2
		c0.5,1.2,1.7,2.4,2.9,2.9C469.6,203.2,468.8,200.3,468.4,197.5z"/>
	<path class="st0" d="M535.4,166c-4.5,6-11.2,9.8-17.9,11c-1.9,4.5-6.2,11.7-12.4,10.3c-4.1-1.2-5.7-4.5-6.4-7.9
		c-0.5-4.1-0.5-8.6,0.7-12.6c0.5-1.2,1.7-2.9,3.3-3.6c1.2-4.5,4.1-8.6,8.6-9.1c9.8-1.9,9.3,12.6,7.4,18.8c5.2-1.2,9.8-4.1,13.1-8.6
		C533,163.1,536.6,164.3,535.4,166z M511.8,177.4c0.5,0-4.5,0.2-6.4-1.2c-1.2-0.5-2.1-1.7-2.6-2.6c0,2.9,0,6.7,1.7,9.1
		C507.2,186,511.3,179.8,511.8,177.4z M507.9,161.5c-1.2,2.4-3.6,8.6-0.7,11.4c1.2,0.7,3.6,0.7,5.2,0.7c0.5,0,1.2,0,1.2,0
		c1-2.9,2.1-6.4,1.7-9.8c-0.2-2.1-0.7-6.4-2.4-6.4C510.8,157.4,508.9,159.8,507.9,161.5z"/>
	<path class="st0" d="M567.3,233.7c-1.7,1-3.8,1.7-6.2,0.5c-5.2-1.7-6.2-8.6-6.9-13.1c-1.2-8.6-1.2-16.7-1.2-25.3s0.7-17.6,1.2-26.2
		c0-4.1,0.7-9.3,0-12.6c-3.1,3.1-4.8,8.6-6.9,12.6c-5.7,11.9-10.7,24.6-16.5,36.5c-1.2,1.9-4.5,1.9-4.5-0.5
		c-0.7-11.4,2.9-37.7,7.9-49.8c1.2-2.1,4.5-4.1,5.7-0.5c0.7,1.2-0.5,2.1-1.7,2.1c-4.5,11.2-5.5,24.3-6.9,36.7
		c4.5-11.4,9.3-22.4,15-33.2c1.7-2.9,3.3-6.9,6.7-8.6c2.4-1.2,5.7,0,5.7,2.9c1.2,5.7,0.7,11.9,0,17.6c-0.5,9.3-1,17.9-1,27
		c0,8.1,0,16,1.7,24.1c0.5,2.4,2.1,8.6,5.7,6.2C567.3,229,569.7,232.5,567.3,233.7z"/>
</g>
</svg>
